<svg xmlns="http://www.w3.org/2000/svg" viewBox="0 0 64 64">
  <rect width="64" height="64" rx="18" fill="#16a34a" />
  <g
    fill="none"
    stroke="#ffffff"
    stroke-linecap="round"
    stroke-linejoin="round"
    stroke-width="4"
  >
    <path d="M28 38h5.333a5.333 5.333 0 1 0 0-10.667h-8c-1.6 0-2.933.533-3.733 1.6L8 44" />
    <path d="m18.667 54 4.267-3.733c.8-1.067 2.133-1.6 3.733-1.6h10.667c2.933 0 5.6-1.067 7.467-3.2l12.267-11.733a5.333 5.333 0 0 0-7.333-7.76L38.533 36.4" />
    <path d="m5.333 41.333 16 16" />
    <circle cx="42.667" cy="22.667" r="7.733" />
    <circle cx="16" cy="12" r="8" />
  </g>
</svg>
